# xmcd
#
# Track frame offsets: 
#        150
#        14230
#        28345
#        42422
#        56077
#        69795
#        83350
#        97215
#        111895
#        124482
#        137250
#        151037
#        165032
#        180082
#        192690
#        206767
#        221995
#        237975
#        252960
#        267797
#        280677
#        295530
#
# Disc length: 4139 seconds
#
# Revision: 1
# Processed by: cddbd v1.4PL0 Copyright (c) Steve Scherf et al.
# Submitted via: ExactAudioCopy v0.90b3
#
DISCID=3a102916
DTITLE=Wilf Carter - Montana Slim - Disc 1
DYEAR=1900
DGENRE=Country
TTITLE0=My Swiss Moonlight Lullaby - 1934
TTITLE1=The Capture Of Albert Johnson - 1934
TTITLE2=The Hobo's Blues - 1934
TTITLE3=Twilight On The Prairie - 1934
TTITLE4=The Roundup In The Fall - 1934
TTITLE5=A Cowboy's Best Friend Is His Pony - 1934
TTITLE6=He Rode The Strawberry Roan - 1934
TTITLE7=Little Silver Haired Sweetheart Of Mine - 1934
TTITLE8=Take Me Back To Old Montana - 1934
TTITLE9=Sway Back Pinto Pete - 1934
TTITLE10=The Yodelling Trailrider - 1934
TTITLE11=Cowboy Don't Forget Your Mother - 1934
TTITLE12=Cowboy Blues - 1934
TTITLE13=The Smoke Went Up The Chimney Just The Same - 1934
TTITLE14=Moonlight Prisom Blues - 1934
TTITLE15=Prairie Blues - 1934
TTITLE16=Down The Old Cattle Trail - 1934
TTITLE17=I Miss My Swiss - 1934
TTITLE18=The Cowboy's High Tonded Dance - 1934
TTITLE19=The Hobo's Dream Of Heaven - 1934
TTITLE20=My Little Swiss And Me - 1934
TTITLE21=Lover's Lullaby Yodel - 1934
EXTD=
EXTT0=
EXTT1=
EXTT2=
EXTT3=
EXTT4=
EXTT5=
EXTT6=
EXTT7=
EXTT8=
EXTT9=
EXTT10=
EXTT11=
EXTT12=
EXTT13=
EXTT14=
EXTT15=
EXTT16=
EXTT17=
EXTT18=
EXTT19=
EXTT20=
EXTT21=
PLAYORDER=
